<svg width="19" height="16" viewBox="0 0 19 16" fill="none" xmlns="http://www.w3.org/2000/svg">
<g clip-path="url(#clip0_17264_9246)">
<path d="M17.5 1H1.5C0.947715 1 0.5 1.44772 0.5 2C0.5 2.55228 0.947715 3 1.5 3H17.5C18.0523 3 18.5 2.55228 18.5 2C18.5 1.44772 18.0523 1 17.5 1Z" fill="#818EA2"/>
<path d="M4.75 4C5.85457 4 6.75 3.10457 6.75 2C6.75 0.89543 5.85457 0 4.75 0C3.64543 0 2.75 0.89543 2.75 2C2.75 3.10457 3.64543 4 4.75 4Z" fill="#818EA2"/>
<path d="M17.5 13H1.5C0.947715 13 0.5 13.4477 0.5 14C0.5 14.5523 0.947715 15 1.5 15H17.5C18.0523 15 18.5 14.5523 18.5 14C18.5 13.4477 18.0523 13 17.5 13Z" fill="#818EA2"/>
<path d="M9.75 16C10.8546 16 11.75 15.1046 11.75 14C11.75 12.8954 10.8546 12 9.75 12C8.64543 12 7.75 12.8954 7.75 14C7.75 15.1046 8.64543 16 9.75 16Z" fill="#818EA2"/>
<path d="M17.5 7H1.5C0.947715 7 0.5 7.44772 0.5 8C0.5 8.55228 0.947715 9 1.5 9H17.5C18.0523 9 18.5 8.55228 18.5 8C18.5 7.44772 18.0523 7 17.5 7Z" fill="#818EA2"/>
<path d="M13.75 10C14.8546 10 15.75 9.10457 15.75 8C15.75 6.89543 14.8546 6 13.75 6C12.6454 6 11.75 6.89543 11.75 8C11.75 9.10457 12.6454 10 13.75 10Z" fill="#818EA2"/>
</g>
<defs>
<clipPath id="clip0_17264_9246">
<rect width="18" height="16" fill="white" transform="translate(0.5)"/>
</clipPath>
</defs>
</svg>
